<svg width="795" height="2705" viewBox="0 0 795 2705" fill="none" xmlns="http://www.w3.org/2000/svg">
<path id="woman-slider" d="M40.1518 1465.57C39.4405 1471.75 39.2458 1476.88 39.7924 1478.87C40.3989 1481.08 43.2443 1485.23 46.8161 1490.44C65.7233 1500.54 76.1841 1512.56 79.4788 1512.47C83.5148 1512.36 87.6407 1501.21 77.0302 1490.63C68.726 1482.35 40.2716 1465.66 40.1518 1465.57Z" fill="#8C3032"/>
<g id="Group 1">
<path id="path232" d="M632.849 1257.57C632.849 1257.57 525.329 1316.38 479.81 1343.7C434.275 1371.01 406.959 1400.15 367.804 1377.39C328.657 1354.62 204.888 1273.43 162.521 1257.57C162.521 1257.57 163.367 1222.03 178.365 1188.91C178.365 1188.91 371.571 1272.22 612.572 1188.91C612.572 1188.91 628.454 1221.76 632.849 1257.57" fill="#7AB2CC"/>
<path id="path234" d="M632.802 1257.18C632.794 1257.14 632.787 1257.1 632.779 1257.06C632.787 1257.1 632.794 1257.14 632.802 1257.18ZM632.75 1256.8C632.742 1256.73 632.735 1256.65 632.72 1256.58C632.735 1256.65 632.742 1256.73 632.75 1256.8ZM632.698 1256.41C632.69 1256.32 632.675 1256.23 632.668 1256.14C632.675 1256.23 632.69 1256.32 632.698 1256.41ZM632.646 1255.99C632.631 1255.9 632.623 1255.81 632.608 1255.71C632.623 1255.81 632.631 1255.9 632.646 1255.99ZM632.579 1255.51C632.571 1255.44 632.564 1255.36 632.556 1255.3C632.564 1255.36 632.571 1255.44 632.579 1255.51ZM632.519 1255.04C632.511 1254.99 632.504 1254.93 632.497 1254.88C632.504 1254.94 632.511 1254.99 632.519 1255.04ZM632.452 1254.59C632.452 1254.55 632.445 1254.52 632.437 1254.48C632.445 1254.52 632.452 1254.56 632.452 1254.59ZM632.385 1254.11C632.385 1254.11 632.385 1254.09 632.385 1254.08C632.385 1254.09 632.385 1254.11 632.385 1254.11Z" fill="#CCBDD9"/>
<path id="path236" d="M395.652 1385.57C393.63 1385.57 391.593 1385.44 389.542 1385.18C389.542 1385.16 389.542 1385.14 389.542 1385.12C382.997 1384.28 376.243 1382.09 369.1 1378.12C369.07 1378.11 369.04 1378.09 369.01 1378.07C368.98 1378.06 368.957 1378.04 368.927 1378.03C368.86 1377.99 368.8 1377.96 368.733 1377.92C368.733 1377.92 368.733 1377.92 368.733 1377.91C368.501 1377.79 368.276 1377.66 368.044 1377.52H368.036C367.961 1377.48 367.886 1377.43 367.804 1377.39C367.579 1377.25 367.347 1377.12 367.108 1376.98C366.868 1376.84 366.621 1376.7 366.374 1376.55C365.625 1376.12 364.854 1375.65 364.053 1375.18C364.038 1375.17 364.023 1375.16 364.008 1375.16C321.206 1349.75 203.6 1272.95 162.521 1257.57C162.521 1257.44 162.835 1245.59 165.943 1229.28C211.178 1247.9 329.653 1325.54 367.804 1347.73C377.681 1353.47 386.801 1355.91 395.652 1355.91C421.897 1355.91 445.762 1334.46 479.802 1314.04C519.316 1290.33 605.496 1242.92 627.57 1230.8C629.51 1238.13 631.224 1246 632.385 1254.08C632.385 1254.09 632.385 1254.11 632.385 1254.11C632.407 1254.23 632.422 1254.36 632.437 1254.48C632.445 1254.52 632.452 1254.55 632.452 1254.59C632.467 1254.68 632.482 1254.78 632.497 1254.88C632.505 1254.93 632.512 1254.99 632.52 1255.04C632.527 1255.12 632.542 1255.21 632.557 1255.3C632.565 1255.36 632.572 1255.44 632.58 1255.51C632.595 1255.57 632.602 1255.64 632.61 1255.71C632.625 1255.81 632.632 1255.9 632.647 1255.99C632.655 1256.04 632.662 1256.09 632.67 1256.14C632.677 1256.23 632.692 1256.32 632.7 1256.41C632.707 1256.47 632.714 1256.52 632.722 1256.58C632.737 1256.65 632.744 1256.73 632.752 1256.8C632.767 1256.88 632.774 1256.97 632.782 1257.06C632.789 1257.1 632.797 1257.14 632.804 1257.18C632.819 1257.31 632.834 1257.45 632.849 1257.57C632.849 1257.57 632.677 1257.66 632.34 1257.85C629.584 1259.36 615.837 1266.89 597.199 1277.19C561.698 1296.82 508.466 1326.5 479.802 1343.7C479.72 1343.74 479.645 1343.8 479.563 1343.84C450.097 1361.54 428.255 1379.88 405.866 1384.42C405.858 1384.45 405.858 1384.49 405.858 1384.52C402.473 1385.2 399.089 1385.57 395.652 1385.57" fill="#65A1C3"/>
<path id="path238" d="M389.542 1385.12C382.6 1384.23 375.427 1381.82 367.804 1377.39C328.657 1354.62 204.91 1273.44 162.521 1257.58C161.607 1261.89 160.709 1266.3 159.862 1270.85C135.279 1402.88 177.167 1564.04 189.912 1606.84C202.664 1649.63 240.957 1757.98 247.3 1843.58C253.642 1929.16 237.258 2018.39 241.811 2148.59C246.364 2278.8 286.425 2407.18 290.071 2487.3C293.71 2567.44 260.936 2658.49 268.221 2681.25C275.5 2704.01 346.523 2710.39 372.02 2700.38C397.509 2690.36 378.392 2643 372.02 2612.96C365.648 2582.91 351.982 2490.95 362.001 2361.65C372.02 2232.37 388.404 2115.82 377.486 2006.55C366.561 1897.3 370.193 1841.76 374.745 1767.09C378.639 1703.31 394.679 1475.8 389.542 1385.12" fill="#A24949"/>
<path id="path240" d="M390.507 1438.85C390.515 1438.82 390.515 1438.78 390.515 1438.75C390.515 1438.78 390.515 1438.81 390.507 1438.85ZM390.515 1438.66C390.65 1418.1 390.373 1399.85 389.542 1385.18C390.373 1399.85 390.65 1418.11 390.515 1438.66Z" fill="#E9AEBE"/>
<path id="path246" d="M158.934 1276.03C158.934 1276.04 158.934 1276.02 158.934 1276.03V1276.03ZM159.256 1274.17C159.263 1274.15 159.271 1274.13 159.271 1274.11C159.263 1274.13 159.263 1274.15 159.256 1274.17ZM159.345 1273.69C159.345 1273.68 159.345 1273.67 159.353 1273.66C159.345 1273.68 159.345 1273.68 159.345 1273.69ZM159.518 1272.74C159.518 1272.73 159.518 1272.72 159.518 1272.72C159.518 1272.73 159.518 1272.73 159.518 1272.74ZM159.593 1272.32C159.6 1272.27 159.608 1272.23 159.615 1272.18C159.608 1272.22 159.6 1272.27 159.593 1272.32ZM159.675 1271.86C159.682 1271.82 159.69 1271.78 159.697 1271.74C159.69 1271.78 159.682 1271.82 159.675 1271.86ZM159.757 1271.41C159.765 1271.37 159.772 1271.33 159.78 1271.29C159.772 1271.33 159.765 1271.37 159.757 1271.41Z" fill="#E9AEBE"/>
<path id="path248" d="M386.164 1573.33C373.015 1497.65 338.481 1412.91 280.299 1412.91C271.044 1412.91 261.19 1415.06 250.729 1419.73C203.293 1440.88 179.271 1479.2 167.163 1510.29C154.77 1443.16 145.365 1354.82 158.934 1276.03C158.934 1276.02 158.934 1276.04 158.934 1276.03C159.038 1275.41 159.151 1274.8 159.256 1274.17C159.263 1274.15 159.263 1274.13 159.271 1274.11C159.293 1273.97 159.315 1273.84 159.345 1273.69C159.345 1273.68 159.345 1273.68 159.353 1273.66C159.405 1273.35 159.458 1273.04 159.518 1272.74C159.518 1272.73 159.518 1272.73 159.518 1272.72C159.54 1272.59 159.57 1272.44 159.593 1272.32C159.6 1272.27 159.608 1272.22 159.615 1272.18C159.638 1272.08 159.66 1271.96 159.675 1271.86C159.682 1271.82 159.69 1271.78 159.697 1271.74C159.72 1271.63 159.742 1271.52 159.757 1271.41C159.765 1271.37 159.772 1271.33 159.78 1271.29C159.81 1271.14 159.832 1271 159.862 1270.85C160.708 1266.3 161.607 1261.89 162.52 1257.58C204.91 1273.44 328.657 1354.62 367.804 1377.39C375.427 1381.82 382.6 1384.23 389.541 1385.12C389.541 1385.14 389.541 1385.15 389.541 1385.18C390.373 1399.85 390.65 1418.1 390.515 1438.66C390.515 1438.69 390.515 1438.72 390.515 1438.75C390.515 1438.78 390.515 1438.82 390.507 1438.85C390.245 1478.21 388.463 1526.02 386.164 1573.33" fill="#984041"/>
<path id="path250" d="M276.024 1850.63C270.602 1862.36 266.993 1873.81 267.143 1885.45C267.233 1891.21 267.839 1897.03 269.591 1902.75C270.198 1905.71 271.523 1908.45 272.452 1911.42C273.523 1914.35 274.983 1917.11 276.024 1920.28C273.545 1918.22 271.111 1915.97 268.977 1913.45C267.128 1910.77 264.896 1908.19 263.631 1905.08C260.396 1899.17 259.026 1892.24 258.943 1885.43C258.928 1878.59 260.509 1871.76 263.534 1865.79C266.484 1859.8 270.632 1854.4 276.024 1850.63" fill="#792727"/>
<path id="path252" d="M341.02 1850.63C346.411 1854.4 350.559 1859.8 353.509 1865.79C356.535 1871.76 358.129 1878.59 358.1 1885.43C358.017 1892.24 356.647 1899.17 353.412 1905.08C352.147 1908.19 349.915 1910.77 348.066 1913.45C345.932 1915.97 343.498 1918.22 341.02 1920.28C342.06 1917.11 343.521 1914.35 344.591 1911.42C345.52 1908.45 346.845 1905.71 347.452 1902.75C349.204 1897.03 349.81 1891.21 349.9 1885.45C350.05 1873.81 346.441 1862.36 341.02 1850.63" fill="#792727"/>
<path id="path254" d="M295.605 2523.28C299.034 2519.52 303.4 2516.9 308.02 2514.97C312.64 2513 317.672 2511.9 322.801 2511.66C327.908 2511.37 333.172 2512.32 337.942 2514.22C342.794 2515.99 346.958 2519.35 350.02 2523.28C345.026 2522.18 340.75 2520.84 336.265 2520.39C331.839 2519.94 327.526 2519.58 323.116 2519.86C314.272 2520.16 305.474 2521.77 295.605 2523.28" fill="#792727"/>
<path id="path256" d="M354.415 2662.49L354.108 2683.76C354.101 2690.54 354.116 2697.38 354.138 2704.21C356.145 2704.01 358.085 2703.75 359.934 2703.45C360.848 2696.95 361.349 2690.4 361.491 2683.83C361.574 2669.37 359.949 2654.71 355.014 2640.94C354.468 2648.27 354.632 2655.37 354.415 2662.49" fill="#792727"/>
<path id="path258" d="M333.187 2651.72C332.648 2659.04 332.813 2666.15 332.588 2673.27L332.281 2694.53C332.273 2697.95 332.303 2701.4 332.296 2704.82C334.602 2704.91 336.878 2704.96 339.125 2704.95C339.394 2701.51 339.589 2698.06 339.664 2694.62C339.739 2680.14 338.129 2665.49 333.187 2651.72" fill="#792727"/>
<path id="path260" d="M317.837 2703.54C317.911 2689.08 316.302 2674.42 311.352 2660.65C310.82 2667.97 310.985 2675.08 310.76 2682.2L310.469 2702.65C312.902 2703.06 315.358 2703.41 317.837 2703.7V2703.54" fill="#792727"/>
<path id="path262" d="M295.942 2699.49C295.59 2686.95 293.808 2674.37 289.525 2662.45C288.993 2669.77 289.158 2676.88 288.933 2684L288.746 2697.19C291.03 2698.02 293.433 2698.8 295.942 2699.49Z" fill="#792727"/>
<path id="path264" d="M605.458 1606.84C618.203 1564.04 660.091 1402.88 635.5 1270.85C634.654 1266.3 633.755 1261.89 632.842 1257.58C632.662 1257.68 525.292 1316.4 479.802 1343.7C450.209 1361.45 428.314 1379.87 405.865 1384.42C400.601 1474.62 416.723 1703.15 420.617 1767.09C425.169 1841.76 428.816 1897.3 417.884 2006.55C406.959 2115.82 423.35 2232.37 433.361 2361.65C443.38 2490.95 429.722 2582.91 423.35 2612.96C416.978 2643 397.853 2690.36 423.35 2700.38C448.847 2710.39 519.863 2704.01 527.149 2681.25C534.427 2658.49 501.652 2567.44 505.299 2487.3C508.938 2407.18 549.006 2278.8 553.551 2148.59C558.111 2018.39 541.72 1929.16 548.07 1843.58C554.412 1757.98 592.706 1649.63 605.458 1606.84" fill="#A24949"/>
<path id="path266" d="M410.014 1589.72C409.707 1583.6 409.4 1577.47 409.1 1571.32C409.4 1577.47 409.707 1583.6 410.014 1589.71C410.014 1589.72 410.014 1589.72 410.014 1589.72ZM405.341 1395.54C405.349 1395.52 405.349 1395.5 405.349 1395.48C405.349 1395.49 405.349 1395.52 405.341 1395.54ZM405.356 1395.22C405.356 1395.22 405.356 1395.21 405.356 1395.2C405.356 1395.21 405.356 1395.22 405.356 1395.22ZM405.364 1394.96C405.364 1394.93 405.371 1394.9 405.371 1394.86C405.371 1394.89 405.364 1394.93 405.364 1394.96ZM405.379 1394.66C405.379 1394.62 405.379 1394.59 405.379 1394.56C405.379 1394.59 405.379 1394.63 405.379 1394.66ZM405.386 1394.38C405.386 1394.33 405.394 1394.29 405.394 1394.24C405.394 1394.29 405.386 1394.34 405.386 1394.38ZM405.401 1394.08C405.401 1394.03 405.401 1393.99 405.401 1393.94C405.401 1393.98 405.401 1394.03 405.401 1394.08ZM405.409 1393.8C405.409 1393.75 405.416 1393.7 405.416 1393.64C405.416 1393.7 405.409 1393.75 405.409 1393.8ZM405.424 1393.5C405.424 1393.44 405.424 1393.38 405.431 1393.33C405.424 1393.38 405.424 1393.44 405.424 1393.5ZM405.431 1393.24C405.439 1393.17 405.439 1393.11 405.439 1393.04C405.439 1393.1 405.439 1393.18 405.431 1393.24ZM405.446 1392.94C405.446 1392.87 405.454 1392.81 405.454 1392.73C405.454 1392.81 405.446 1392.87 405.446 1392.94ZM405.454 1392.66C405.461 1392.6 405.461 1392.53 405.461 1392.46C405.461 1392.53 405.461 1392.6 405.454 1392.66ZM405.469 1392.36C405.469 1392.29 405.476 1392.22 405.476 1392.15C405.476 1392.22 405.469 1392.3 405.469 1392.36ZM405.476 1392.1C405.484 1392.03 405.484 1391.95 405.491 1391.88C405.484 1391.95 405.484 1392.02 405.476 1392.1ZM405.491 1391.8C405.499 1391.72 405.499 1391.65 405.499 1391.57C405.499 1391.65 405.499 1391.72 405.491 1391.8ZM405.506 1391.53C405.506 1391.46 405.514 1391.38 405.514 1391.29C405.514 1391.38 405.506 1391.45 405.506 1391.53ZM405.514 1391.23C405.521 1391.16 405.521 1391.09 405.529 1391.02C405.521 1391.09 405.521 1391.16 405.514 1391.23ZM405.529 1390.95C405.536 1390.87 405.536 1390.81 405.536 1390.74C405.536 1390.81 405.536 1390.87 405.529 1390.95ZM405.543 1390.66C405.543 1390.58 405.551 1390.51 405.551 1390.44C405.551 1390.51 405.543 1390.59 405.543 1390.66ZM405.551 1390.4C405.558 1390.32 405.558 1390.25 405.566 1390.17C405.558 1390.24 405.558 1390.33 405.551 1390.4ZM405.566 1390.09C405.573 1390.02 405.573 1389.95 405.581 1389.87C405.573 1389.95 405.573 1390.02 405.566 1390.09ZM405.581 1389.85C405.581 1389.76 405.588 1389.68 405.588 1389.59C405.588 1389.68 405.581 1389.76 405.581 1389.85ZM405.588 1389.57C405.596 1389.49 405.603 1389.4 405.603 1389.32C405.603 1389.41 405.596 1389.49 405.588 1389.57ZM405.603 1389.28C405.611 1389.2 405.611 1389.12 405.618 1389.05C405.611 1389.12 405.611 1389.2 405.603 1389.28ZM405.618 1388.98C405.626 1388.82 405.633 1388.64 405.648 1388.47C405.633 1388.64 405.626 1388.82 405.618 1388.98ZM405.648 1388.47C405.656 1388.29 405.663 1388.11 405.671 1387.93C405.663 1388.11 405.656 1388.29 405.648 1388.47ZM405.671 1387.89C405.686 1387.71 405.693 1387.55 405.701 1387.38C405.693 1387.55 405.686 1387.71 405.671 1387.89ZM405.701 1387.35C405.738 1386.64 405.776 1385.92 405.813 1385.22C405.776 1385.92 405.738 1386.63 405.701 1387.35ZM405.82 1385.14C405.828 1385.08 405.828 1385.02 405.828 1384.95C405.828 1385.02 405.828 1385.08 405.82 1385.14ZM405.835 1384.88C405.843 1384.76 405.85 1384.64 405.858 1384.52C405.85 1384.64 405.843 1384.76 405.835 1384.88Z" fill="#E9AEBE"/>
<path id="path268" d="M405.858 1384.52C405.858 1384.49 405.858 1384.45 405.865 1384.42C405.858 1384.46 405.858 1384.48 405.858 1384.52Z" fill="#5D8EAB"/>
<path id="path270" d="M410.014 1589.71C409.707 1583.6 409.4 1577.47 409.1 1571.32C405.925 1505.38 403.776 1438.76 405.341 1395.54C405.349 1395.52 405.349 1395.49 405.349 1395.48C405.349 1395.4 405.356 1395.31 405.356 1395.22C405.356 1395.22 405.356 1395.21 405.356 1395.2C405.356 1395.12 405.364 1395.04 405.364 1394.96C405.364 1394.93 405.371 1394.89 405.371 1394.86C405.371 1394.79 405.371 1394.72 405.379 1394.66C405.379 1394.63 405.379 1394.59 405.379 1394.56C405.386 1394.5 405.386 1394.44 405.386 1394.38C405.386 1394.34 405.394 1394.29 405.394 1394.24C405.394 1394.19 405.394 1394.13 405.401 1394.08C405.401 1394.03 405.401 1393.98 405.401 1393.94C405.409 1393.9 405.409 1393.85 405.409 1393.8C405.409 1393.75 405.416 1393.7 405.416 1393.64C405.416 1393.59 405.424 1393.55 405.424 1393.5C405.424 1393.44 405.424 1393.38 405.431 1393.33C405.431 1393.3 405.431 1393.27 405.431 1393.24C405.439 1393.18 405.439 1393.1 405.439 1393.04C405.439 1393.01 405.446 1392.97 405.446 1392.94C405.446 1392.87 405.453 1392.81 405.453 1392.73C405.453 1392.72 405.453 1392.69 405.453 1392.66C405.461 1392.6 405.461 1392.53 405.461 1392.46C405.468 1392.42 405.468 1392.39 405.468 1392.36C405.468 1392.3 405.476 1392.22 405.476 1392.15C405.476 1392.14 405.476 1392.12 405.476 1392.1C405.483 1392.02 405.483 1391.95 405.491 1391.88C405.491 1391.85 405.491 1391.83 405.491 1391.8C405.498 1391.72 405.498 1391.65 405.498 1391.57C405.506 1391.56 405.506 1391.55 405.506 1391.53C405.506 1391.45 405.513 1391.38 405.513 1391.29C405.513 1391.27 405.513 1391.26 405.513 1391.23C405.521 1391.16 405.521 1391.09 405.528 1391.02C405.528 1391 405.528 1390.97 405.528 1390.95C405.536 1390.87 405.536 1390.81 405.536 1390.74C405.543 1390.71 405.543 1390.69 405.543 1390.66C405.543 1390.59 405.551 1390.51 405.551 1390.44C405.551 1390.43 405.551 1390.41 405.551 1390.4C405.558 1390.33 405.558 1390.24 405.566 1390.17C405.566 1390.15 405.566 1390.12 405.566 1390.09C405.573 1390.02 405.573 1389.95 405.581 1389.87C405.581 1389.86 405.581 1389.86 405.581 1389.85C405.581 1389.76 405.588 1389.68 405.588 1389.59C405.588 1389.58 405.588 1389.58 405.588 1389.57C405.596 1389.49 405.603 1389.41 405.603 1389.32C405.603 1389.3 405.603 1389.29 405.603 1389.28C405.611 1389.2 405.611 1389.12 405.618 1389.05C405.618 1389.02 405.618 1389 405.618 1388.98C405.626 1388.82 405.633 1388.64 405.648 1388.47C405.648 1388.47 405.648 1388.48 405.648 1388.47C405.656 1388.29 405.663 1388.11 405.671 1387.93C405.671 1387.92 405.671 1387.9 405.671 1387.89C405.686 1387.71 405.693 1387.55 405.701 1387.38C405.701 1387.37 405.701 1387.36 405.701 1387.35C405.738 1386.63 405.776 1385.92 405.813 1385.22C405.821 1385.19 405.82 1385.17 405.82 1385.14C405.828 1385.08 405.828 1385.02 405.828 1384.95C405.835 1384.93 405.835 1384.91 405.835 1384.88C405.843 1384.76 405.85 1384.64 405.858 1384.52C405.858 1384.48 405.858 1384.46 405.865 1384.42C428.314 1379.87 450.209 1361.45 479.802 1343.7C525.291 1316.4 632.662 1257.68 632.842 1257.58C633.755 1261.89 634.654 1266.3 635.5 1270.85C649.997 1348.72 641.378 1436.71 629.247 1504.58C616.48 1474.63 592.571 1439.61 548.01 1419.73C537.542 1415.06 527.688 1412.91 518.433 1412.91C455.998 1412.91 420.781 1510.48 410.014 1589.72" fill="#984041"/>
<path id="path272" d="M453.819 1850.63C448.397 1862.36 444.788 1873.81 444.938 1885.45C445.035 1891.21 445.634 1897.03 447.394 1902.75C448 1905.71 449.318 1908.45 450.254 1911.42C451.318 1914.35 452.785 1917.11 453.819 1920.28C451.347 1918.22 448.914 1915.97 446.78 1913.45C444.923 1910.77 442.699 1908.19 441.441 1905.08C438.199 1899.17 436.828 1892.24 436.753 1885.43C436.723 1878.59 438.318 1871.76 441.329 1865.79C444.286 1859.8 448.435 1854.4 453.819 1850.63" fill="#792727"/>
<path id="path274" d="M518.822 1850.63C524.206 1854.4 528.362 1859.8 531.312 1865.79C534.337 1871.76 535.925 1878.59 535.895 1885.43C535.812 1892.24 534.45 1899.17 531.207 1905.08C529.949 1908.19 527.718 1910.77 525.861 1913.45C523.734 1915.97 521.308 1918.22 518.822 1920.28C519.863 1917.11 521.323 1914.35 522.394 1911.42C523.322 1908.45 524.64 1905.71 525.254 1902.75C527.006 1897.03 527.613 1891.21 527.703 1885.45C527.86 1873.81 524.243 1862.36 518.822 1850.63" fill="#792727"/>
<path id="path276" d="M442.018 2523.28C445.44 2519.52 449.805 2516.9 454.425 2514.97C459.045 2513 464.077 2511.9 469.207 2511.66C474.321 2511.37 479.57 2512.32 484.347 2514.22C489.192 2515.99 493.363 2519.35 496.418 2523.28C491.424 2522.18 487.155 2520.84 482.662 2520.39C478.245 2519.94 473.924 2519.58 469.521 2519.86C460.678 2520.16 451.879 2521.77 442.018 2523.28" fill="#792727"/>
<path id="path278" d="M440.984 2683.76L440.677 2662.49C440.46 2655.37 440.617 2648.27 440.078 2640.94C435.144 2654.71 433.526 2669.37 433.601 2683.83C433.736 2690.38 434.245 2696.92 435.151 2703.41C437.001 2703.72 438.948 2703.97 440.947 2704.18C440.969 2697.36 440.992 2690.54 440.984 2683.76" fill="#792727"/>
<path id="path280" d="M462.804 2694.53L462.497 2673.27C462.288 2666.15 462.445 2659.04 461.906 2651.72C456.971 2665.49 455.346 2680.14 455.428 2694.62C455.496 2698.06 455.698 2701.51 455.96 2704.95C458.214 2704.96 460.483 2704.92 462.789 2704.83C462.789 2701.41 462.812 2697.95 462.804 2694.53" fill="#792727"/>
<path id="path282" d="M484.325 2682.2C484.115 2675.08 484.265 2667.97 483.733 2660.65C478.791 2674.42 477.174 2689.08 477.256 2703.54L477.264 2703.73C479.742 2703.44 482.198 2703.09 484.624 2702.7L484.325 2682.2Z" fill="#792727"/>
<path id="path284" d="M506.347 2697.28L506.152 2684C505.935 2676.88 506.092 2669.77 505.561 2662.45C501.278 2674.39 499.488 2687 499.151 2699.57C501.659 2698.88 504.063 2698.12 506.347 2697.28" fill="#792727"/>
<path id="path286" d="M569.546 694.879C575.499 630.123 593.103 531.625 593.103 531.625L567.793 526.609C563.81 536.53 532.607 682.883 532.607 682.883C433.594 691.764 396.034 762.099 396.034 762.099C396.034 762.099 358.481 691.764 259.46 682.883C259.46 682.883 228.527 536.957 224.551 527.035L199.234 532.052C199.234 532.052 216.569 630.123 222.529 694.879C181.143 727.968 184.438 800.385 231.724 823.972C284.575 850.33 396.034 808.539 396.034 808.539C396.034 808.539 507.493 850.33 560.343 823.972C607.63 800.385 610.924 727.968 569.546 694.879" fill="#F89D62"/>
<path id="path288" d="M231.725 823.972C231.642 823.927 231.56 823.889 231.485 823.852C231.567 823.889 231.642 823.927 231.725 823.972ZM231.41 823.814C231.343 823.777 231.268 823.74 231.2 823.702C231.268 823.74 231.335 823.777 231.41 823.814ZM231.118 823.665C231.058 823.635 231.006 823.605 230.953 823.582C231.006 823.605 231.058 823.635 231.118 823.665ZM230.848 823.522C230.796 823.5 230.751 823.477 230.699 823.447C230.751 823.477 230.796 823.5 230.848 823.522ZM230.527 823.358C230.497 823.343 230.467 823.328 230.429 823.305C230.467 823.328 230.497 823.343 230.527 823.358ZM230.294 823.238C230.279 823.23 230.272 823.223 230.264 823.215C230.272 823.223 230.287 823.23 230.294 823.238ZM229.95 823.051C229.942 823.043 229.935 823.043 229.927 823.036C229.935 823.043 229.942 823.051 229.95 823.051ZM564.154 821.912C564.229 821.867 564.304 821.823 564.372 821.785C564.297 821.823 564.229 821.867 564.154 821.912ZM564.394 821.77C564.461 821.733 564.536 821.688 564.611 821.643C564.536 821.688 564.461 821.725 564.394 821.77ZM564.694 821.59C564.746 821.56 564.798 821.531 564.843 821.501C564.798 821.531 564.746 821.56 564.694 821.59ZM564.993 821.411C565.03 821.388 565.068 821.366 565.105 821.343C565.068 821.366 565.03 821.388 564.993 821.411ZM565.225 821.268C565.255 821.254 565.278 821.238 565.3 821.224C565.278 821.238 565.255 821.254 565.225 821.268ZM565.555 821.066C565.562 821.059 565.585 821.051 565.592 821.044C565.577 821.051 565.57 821.059 565.555 821.066Z" fill="#FAB4B0"/>
<path id="path290" d="M514.569 832.695C514.539 832.695 514.516 832.695 514.486 832.695C460.393 832.665 396.034 808.539 396.034 808.539C396.034 808.539 396.026 808.539 396.019 808.539C394.911 808.958 331.203 832.665 277.581 832.695C277.551 832.695 277.529 832.695 277.499 832.695C277.491 832.695 277.491 832.695 277.484 832.695C260.523 832.688 244.566 830.314 231.934 824.076C231.867 824.039 231.792 824.002 231.725 823.972C231.642 823.927 231.567 823.889 231.485 823.852C231.463 823.837 231.433 823.822 231.41 823.814C231.335 823.777 231.268 823.74 231.2 823.702C231.17 823.687 231.141 823.68 231.118 823.665C231.058 823.635 231.006 823.605 230.953 823.582C230.916 823.56 230.886 823.545 230.849 823.522C230.796 823.5 230.751 823.477 230.699 823.447C230.646 823.417 230.586 823.388 230.527 823.358C230.497 823.343 230.467 823.328 230.429 823.305C230.384 823.283 230.339 823.26 230.294 823.238C230.287 823.23 230.272 823.223 230.264 823.215C230.16 823.163 230.055 823.11 229.95 823.051C229.942 823.051 229.935 823.043 229.927 823.036C200.387 807.146 188.991 771.728 195.685 739.859C200.058 760.279 212.016 778.624 231.725 788.456C244.394 794.783 260.434 797.187 277.499 797.18C331.615 797.18 396.034 773.023 396.034 773.023C396.034 773.023 460.453 797.18 514.569 797.18C531.634 797.18 547.673 794.776 560.343 788.456C580.051 778.624 592.01 760.279 596.383 739.859C602.815 770.455 592.571 804.331 565.592 821.044C565.585 821.051 565.562 821.059 565.555 821.066C565.472 821.119 565.382 821.171 565.3 821.224C565.278 821.239 565.255 821.254 565.225 821.268C565.188 821.291 565.143 821.321 565.105 821.343C565.068 821.366 565.03 821.388 564.993 821.411C564.948 821.441 564.896 821.471 564.843 821.501C564.798 821.531 564.746 821.56 564.694 821.59C564.664 821.605 564.641 821.628 564.611 821.643C564.536 821.688 564.461 821.733 564.394 821.77C564.386 821.778 564.379 821.778 564.372 821.785C564.304 821.823 564.229 821.867 564.154 821.912C564.139 821.92 564.124 821.927 564.117 821.935C564.132 821.852 564.154 821.77 564.169 821.695C562.889 822.444 561.698 823.298 560.343 823.972C560.276 824.002 560.201 824.039 560.133 824.076C547.501 830.314 531.544 832.688 514.591 832.695C514.576 832.695 514.576 832.695 514.569 832.695" fill="#F6884D"/>
<path id="path292" d="M246.364 998.608C241.541 1085.36 208.624 1121.11 182.214 1190.46C210.107 1201.35 391.092 1265.47 612.572 1188.91C586.266 1120.56 553.783 1084.71 549.006 998.608C544.686 920.822 556.254 855.639 564.169 821.696C562.889 822.445 561.698 823.299 560.343 823.973C507.493 850.33 396.034 808.54 396.034 808.54C396.034 808.54 284.575 850.33 231.724 823.973C239.602 858.507 250.587 922.53 246.364 998.608" fill="#A24949"/>
<path id="path294" d="M240.388 870.555C240.38 870.555 240.38 870.555 240.373 870.547C237.999 854.41 235.326 840.378 232.855 829.033C235.334 840.385 238.014 854.38 240.388 870.555V870.555ZM555.146 869.394C557.662 852.471 560.515 837.967 563.083 826.45C560.515 837.959 557.685 852.493 555.161 869.394C555.154 869.394 555.154 869.394 555.146 869.394Z" fill="#E9AEBE"/>
<path id="path296" d="M514.584 875.879C502.73 875.879 490.375 874.718 478.312 872.906C473.796 872.232 469.304 871.461 464.901 870.622C460.498 869.784 456.185 868.885 451.992 867.949C420.527 860.903 396.034 851.722 396.034 851.722C396.034 851.722 348.036 869.716 300.097 874.643C297.814 874.883 295.53 875.085 293.246 875.257C288.701 875.602 284.17 875.811 279.693 875.864C279.011 875.871 278.33 875.879 277.656 875.879C264.192 875.879 251.44 874.276 240.388 870.555C238.014 854.381 235.334 840.386 232.855 829.034C232.473 827.282 232.091 825.589 231.724 823.972C244.394 830.292 260.433 832.696 277.499 832.696C331.614 832.688 396.034 808.539 396.034 808.539C396.034 808.539 460.453 832.696 514.569 832.696C531.634 832.696 547.673 830.292 560.343 823.972C561.698 823.298 562.889 822.445 564.169 821.696C563.817 823.216 563.45 824.803 563.083 826.45C560.515 837.967 557.662 852.471 555.146 869.394C548.115 872.165 540.29 873.969 531.933 874.943C526.34 875.587 520.522 875.879 514.584 875.879" fill="#984041"/>
<path id="path298" d="M385.843 1091.56C385.843 1101.22 390.403 1109.04 396.034 1109.04C401.665 1109.04 406.225 1101.22 406.225 1091.56C406.225 1081.9 401.665 1074.09 396.034 1074.09C390.403 1074.09 385.843 1081.9 385.843 1091.56Z" fill="#792727"/>
<path id="path300" d="M259.46 682.883C358.481 691.764 396.034 762.099 396.034 762.099C396.034 762.099 433.593 691.764 532.607 682.883C532.607 682.883 563.301 538.941 567.674 526.945C539.504 521.636 510.982 516.043 490.959 503.965C444.519 475.967 450.666 418.602 450.666 418.602H344.703C344.703 418.602 350.851 475.967 304.41 503.965C283.684 516.462 253.837 522.026 224.708 527.507C229.238 540.296 259.46 682.883 259.46 682.883Z" fill="#A24949"/>
<path id="path302" d="M303.123 526.503C309.922 526.99 316.466 528.548 322.854 530.517C329.249 532.456 335.448 534.972 341.476 537.885C347.489 540.813 353.277 544.243 358.721 548.196C364.157 552.135 369.257 556.665 373.458 562.012C367.175 559.368 361.327 556.5 355.449 553.685C349.519 550.959 343.723 548.084 337.867 545.246C326.216 539.45 314.549 533.767 303.123 526.503" fill="#792727"/>
<path id="path304" d="M492.427 526.503C480.993 533.767 469.326 539.45 457.675 545.246C451.819 548.084 446.031 550.959 440.101 553.685C434.215 556.5 428.374 559.368 422.092 562.012C426.285 556.665 431.392 552.135 436.821 548.196C442.265 544.243 448.06 540.813 454.073 537.885C460.094 534.972 466.294 532.456 472.696 530.517C479.083 528.548 485.628 526.99 492.427 526.503Z" fill="#792727"/>
<path id="path306" d="M466.331 480.737C457.51 467.76 453.481 453.653 451.707 442.166C451.714 442.159 451.714 442.159 451.722 442.151C453.504 453.638 457.533 467.745 466.361 480.722C466.353 480.722 466.338 480.73 466.331 480.737ZM329.832 479.532C329.825 479.532 329.825 479.532 329.817 479.524C338.039 466.959 341.88 453.451 343.618 442.354C343.625 442.354 343.625 442.361 343.633 442.361C341.895 453.458 338.054 466.967 329.832 479.532Z" fill="#E9AEBE"/>
<path id="path308" d="M401.837 496.904C372.664 496.897 347.189 487.896 329.832 479.532C338.054 466.967 341.896 453.459 343.633 442.362C362.083 456.229 380.421 464.504 394.798 465.462C394.798 465.462 394.798 465.462 394.806 465.462C394.866 465.47 394.94 465.469 395.008 465.477C395.015 465.477 395.023 465.477 395.03 465.477C395.09 465.484 395.15 465.484 395.218 465.484C395.225 465.492 395.24 465.492 395.248 465.492C395.307 465.492 395.367 465.499 395.427 465.499C395.442 465.499 395.457 465.499 395.472 465.499C395.532 465.507 395.584 465.507 395.637 465.507C395.659 465.514 395.682 465.514 395.697 465.514C395.749 465.514 395.802 465.514 395.847 465.522C395.869 465.522 395.899 465.522 395.921 465.522C395.966 465.522 396.019 465.529 396.064 465.529C396.086 465.529 396.116 465.529 396.139 465.529C396.183 465.529 396.228 465.537 396.273 465.537C396.303 465.537 396.333 465.537 396.363 465.537C396.401 465.537 396.446 465.537 396.483 465.544C396.52 465.544 396.543 465.544 396.573 465.544C396.618 465.544 396.655 465.544 396.7 465.544C396.73 465.544 396.768 465.544 396.798 465.552C396.835 465.552 396.872 465.552 396.91 465.552C396.94 465.552 396.977 465.552 397.007 465.552C397.045 465.552 397.082 465.552 397.12 465.552C397.164 465.552 397.202 465.552 397.247 465.552C397.269 465.552 397.307 465.552 397.329 465.552C397.397 465.552 397.472 465.552 397.539 465.552C397.606 465.552 397.681 465.552 397.749 465.552C397.779 465.552 397.808 465.552 397.838 465.552C397.876 465.552 397.921 465.552 397.958 465.552C397.996 465.552 398.033 465.552 398.071 465.552C398.1 465.552 398.138 465.552 398.175 465.552C398.213 465.552 398.25 465.552 398.288 465.552C398.318 465.544 398.355 465.544 398.385 465.544C398.422 465.544 398.467 465.544 398.505 465.544C398.535 465.544 398.565 465.544 398.595 465.544C398.64 465.537 398.677 465.537 398.722 465.537C398.752 465.537 398.782 465.537 398.804 465.537C398.857 465.537 398.894 465.529 398.947 465.529C398.969 465.529 398.992 465.529 399.022 465.529C399.066 465.529 399.111 465.522 399.164 465.522C399.186 465.522 399.209 465.522 399.231 465.522C399.284 465.514 399.336 465.514 399.381 465.514C399.403 465.514 399.426 465.514 399.441 465.507C399.493 465.507 399.553 465.507 399.606 465.499C399.621 465.499 399.635 465.499 399.658 465.499C399.71 465.499 399.77 465.492 399.83 465.492C399.845 465.492 399.853 465.492 399.868 465.484C399.927 465.484 399.987 465.484 400.047 465.477C400.062 465.477 400.07 465.477 400.077 465.477C400.145 465.469 400.212 465.47 400.279 465.462C400.279 465.462 400.279 465.462 400.287 465.462C414.731 464.496 433.167 456.147 451.707 442.167C453.482 453.653 457.51 467.761 466.331 480.738C444.032 492.584 422.055 496.904 401.837 496.904" fill="#984041"/>
<path id="path312" d="M222.522 694.88C216.809 632.64 200.575 539.676 199.324 532.54C173.034 538.238 149.986 545.681 138.469 560.65C111.153 596.158 92.0286 640.547 79.7408 731.369C67.4455 822.198 58.5721 924.634 51.0617 964.92C43.5512 1005.21 28.5228 1059.16 16.9089 1158.18C6.8825 1243.74 14.1833 1326.19 16.3548 1347.03C15.6734 1349.73 15.0369 1352.22 15.0369 1352.22C-14.8327 1434.72 7.90833 1482.2 14.4528 1487.7C21.0048 1493.21 42.458 1522.44 47.0781 1531.66C51.6982 1540.9 63.1772 1549.12 65.0867 1531.26C66.9886 1513.4 41.7616 1485.99 39.7923 1478.87C37.8304 1471.76 45.1536 1425.19 52.6266 1430.47C60.0922 1435.74 62.5258 1453.81 70.815 1468.73C79.1117 1483.64 93.0095 1484.5 90.7631 1476.84C88.5242 1469.18 88.599 1437.17 91.6991 1413.04C94.8066 1388.9 72.1704 1356.99 72.1704 1356.99C72.2153 1356.82 70.8 1354.74 68.8307 1351.93C74.3493 1289.27 107.978 1168.8 125.268 1095.13C142.565 1021.37 137.106 979.147 137.106 979.147C157.945 896.959 179.683 827.223 196.276 777.877C189.066 748.741 197.684 714.746 222.522 694.88" fill="#A24949"/>
<path id="path314" d="M754.836 1478.87C755.383 1476.88 755.188 1471.75 754.477 1465.57C754.35 1465.66 725.903 1482.35 717.598 1490.63C706.98 1501.21 711.114 1512.36 715.15 1512.47C718.445 1512.56 728.913 1500.54 747.82 1490.44C751.384 1485.23 754.23 1481.08 754.836 1478.87Z" fill="#8C3032"/>
<path id="path316" d="M779.592 1352.22C779.592 1352.22 779.247 1350.85 778.79 1349.09C780.617 1332.27 788.854 1246.9 778.453 1158.18C766.847 1059.16 751.826 1005.21 744.308 964.92C736.798 924.634 727.917 822.198 715.629 731.369C703.334 640.547 684.209 596.158 656.901 560.65C644.95 545.112 620.576 537.684 593.065 531.889C592.092 537.37 575.319 632.011 569.546 694.88C592.743 713.428 601.879 744.331 597.132 772.066C613.942 821.667 636.578 893.649 658.271 979.147C658.271 979.147 652.797 1021.37 670.102 1095.13C687.302 1168.45 720.691 1288.09 726.442 1350.99C724.143 1354.27 722.413 1356.8 722.458 1356.99C722.458 1356.99 699.822 1388.9 702.922 1413.04C706.022 1437.17 706.112 1469.18 703.858 1476.84C701.619 1484.5 715.517 1483.64 723.806 1468.73C732.103 1453.81 734.536 1435.74 742.002 1430.47C749.475 1425.19 756.798 1471.76 754.836 1478.87C752.867 1485.99 727.64 1513.4 729.549 1531.26C731.459 1549.12 742.93 1540.9 747.55 1531.66C752.178 1522.44 773.631 1493.21 780.176 1487.7C786.72 1482.2 809.469 1434.72 779.592 1352.22" fill="#A24949"/>
<path id="path318" d="M533.573 255.229C533.521 253.589 533.506 251.934 533.439 250.302C530.593 243.016 517.781 213.393 490.413 192.569C467.582 175.204 434.313 160.341 420.183 128.622C400.437 160.341 353.944 175.204 322.03 192.569C282.696 213.985 264.904 244.633 261.624 250.796C261.564 252.263 261.549 253.754 261.497 255.229C228.924 226.085 224.506 276.899 233.694 301.991C241.736 323.916 254.69 336.698 270.939 343.078C295.747 414.244 361.162 465.552 397.539 465.552C433.923 465.552 499.331 414.244 524.131 343.078C540.387 336.698 553.342 323.916 561.377 301.991C570.579 276.892 566.154 226.078 533.573 255.229" fill="#A24949"/>
<path id="path320" d="M397.539 465.552C397.471 465.552 397.397 465.552 397.329 465.552C397.404 465.552 397.471 465.552 397.539 465.552C397.614 465.552 397.681 465.552 397.749 465.552C397.681 465.552 397.606 465.552 397.539 465.552ZM397.247 465.552C397.202 465.552 397.164 465.552 397.119 465.552C397.164 465.552 397.202 465.552 397.247 465.552ZM397.838 465.552C397.876 465.552 397.921 465.552 397.958 465.552C397.921 465.552 397.876 465.552 397.838 465.552ZM397.007 465.552C396.977 465.552 396.94 465.552 396.91 465.552C396.94 465.552 396.977 465.552 397.007 465.552ZM398.07 465.552C398.108 465.552 398.138 465.552 398.175 465.552C398.138 465.552 398.1 465.552 398.07 465.552ZM398.288 465.552C398.318 465.544 398.347 465.544 398.385 465.544C398.355 465.544 398.318 465.544 398.288 465.552ZM396.798 465.552C396.768 465.544 396.73 465.544 396.7 465.544C396.73 465.544 396.76 465.544 396.798 465.552ZM396.573 465.544C396.543 465.544 396.52 465.544 396.483 465.544C396.513 465.544 396.55 465.544 396.573 465.544ZM398.505 465.544C398.535 465.544 398.565 465.544 398.595 465.544C398.565 465.544 398.535 465.544 398.505 465.544ZM398.722 465.537C398.744 465.537 398.782 465.537 398.804 465.537C398.782 465.537 398.752 465.537 398.722 465.537ZM396.363 465.537C396.333 465.537 396.303 465.537 396.273 465.537C396.303 465.537 396.333 465.537 396.363 465.537ZM398.946 465.529C398.969 465.529 398.991 465.529 399.021 465.529C398.991 465.529 398.969 465.529 398.946 465.529ZM396.138 465.529C396.116 465.529 396.086 465.529 396.064 465.529C396.086 465.529 396.109 465.529 396.138 465.529ZM399.164 465.522C399.186 465.522 399.209 465.522 399.231 465.522C399.209 465.522 399.186 465.522 399.164 465.522ZM395.921 465.522C395.899 465.522 395.869 465.522 395.847 465.522C395.876 465.522 395.899 465.522 395.921 465.522ZM399.381 465.514C399.403 465.514 399.426 465.514 399.441 465.507C399.426 465.514 399.403 465.514 399.381 465.514ZM395.697 465.514C395.682 465.514 395.659 465.514 395.637 465.507C395.659 465.514 395.674 465.514 395.697 465.514ZM399.606 465.499C399.62 465.499 399.635 465.499 399.658 465.499C399.635 465.499 399.62 465.499 399.606 465.499ZM395.472 465.499C395.457 465.499 395.442 465.499 395.427 465.499C395.442 465.499 395.457 465.499 395.472 465.499ZM399.83 465.492C399.837 465.492 399.853 465.492 399.867 465.484C399.853 465.492 399.845 465.492 399.83 465.492ZM395.247 465.492C395.24 465.492 395.225 465.492 395.217 465.484C395.225 465.492 395.24 465.492 395.247 465.492ZM400.047 465.477C400.062 465.477 400.07 465.477 400.077 465.477C400.07 465.477 400.062 465.477 400.047 465.477ZM395.03 465.477C395.023 465.477 395.015 465.477 395.008 465.477C395.015 465.477 395.023 465.477 395.03 465.477ZM400.279 465.462C400.279 465.462 400.279 465.462 400.287 465.462C400.279 465.462 400.279 465.462 400.279 465.462ZM394.806 465.462C394.798 465.462 394.798 465.462 394.798 465.462C394.798 465.462 394.798 465.462 394.806 465.462Z" fill="#8F383A"/>
<path id="path322" d="M397.539 465.552C397.471 465.552 397.404 465.552 397.329 465.552C397.299 465.552 397.277 465.552 397.247 465.552C397.202 465.552 397.164 465.552 397.119 465.552C397.082 465.552 397.045 465.552 397.007 465.552C396.977 465.552 396.94 465.552 396.91 465.552C396.872 465.552 396.835 465.552 396.797 465.552C396.76 465.544 396.73 465.544 396.7 465.544C396.655 465.544 396.618 465.544 396.573 465.544C396.55 465.544 396.513 465.544 396.483 465.544C396.445 465.537 396.401 465.537 396.363 465.537C396.333 465.537 396.303 465.537 396.273 465.537C396.228 465.537 396.183 465.529 396.138 465.529C396.108 465.529 396.086 465.529 396.064 465.529C396.011 465.529 395.966 465.522 395.921 465.522C395.899 465.522 395.876 465.522 395.846 465.522C395.802 465.514 395.749 465.514 395.697 465.514C395.674 465.514 395.659 465.514 395.637 465.507C395.584 465.507 395.532 465.507 395.472 465.499C395.457 465.499 395.442 465.499 395.427 465.499C395.367 465.499 395.307 465.492 395.247 465.492C395.24 465.492 395.225 465.492 395.217 465.484C395.15 465.484 395.09 465.484 395.03 465.477C395.023 465.477 395.015 465.477 395.008 465.477C394.94 465.469 394.865 465.469 394.806 465.462C394.798 465.462 394.798 465.462 394.798 465.462C375.307 464.166 348.567 449.385 324.126 425.476C324.126 425.468 324.126 425.468 324.126 425.461C324.059 425.393 323.992 425.326 323.917 425.259C320.435 421.852 317.035 418.198 313.673 414.439C313.658 414.454 313.643 414.461 313.636 414.476C297.417 396.258 282.942 374.011 273.313 349.158C308.798 406.419 363.88 444.346 397.539 444.346C431.197 444.346 486.286 406.419 521.765 349.166C513.101 371.525 500.514 391.772 486.264 408.883C481.502 414.581 476.56 419.965 471.505 424.929C471.423 425.012 471.34 425.094 471.258 425.169C471.258 425.176 471.258 425.176 471.258 425.176C446.742 449.258 419.86 464.159 400.287 465.462C400.279 465.462 400.279 465.462 400.279 465.462C400.212 465.469 400.145 465.469 400.077 465.477C400.07 465.477 400.062 465.477 400.047 465.477C399.987 465.484 399.927 465.484 399.867 465.484C399.852 465.492 399.837 465.492 399.83 465.492C399.77 465.492 399.71 465.499 399.658 465.499C399.635 465.499 399.62 465.499 399.605 465.499C399.546 465.507 399.493 465.507 399.441 465.507C399.426 465.514 399.403 465.514 399.381 465.514C399.336 465.514 399.283 465.514 399.231 465.522C399.209 465.522 399.186 465.522 399.164 465.522C399.111 465.522 399.066 465.529 399.021 465.529C398.991 465.529 398.969 465.529 398.946 465.529C398.894 465.529 398.857 465.537 398.804 465.537C398.782 465.537 398.744 465.537 398.722 465.537C398.677 465.537 398.639 465.537 398.595 465.544C398.565 465.544 398.535 465.544 398.505 465.544C398.467 465.544 398.422 465.544 398.385 465.544C398.347 465.544 398.318 465.544 398.288 465.552C398.25 465.552 398.213 465.552 398.175 465.552C398.138 465.552 398.108 465.552 398.07 465.552C398.033 465.552 397.995 465.552 397.958 465.552C397.921 465.552 397.876 465.552 397.838 465.552C397.808 465.552 397.778 465.552 397.748 465.552C397.681 465.552 397.614 465.552 397.539 465.552" fill="#984041"/>
<path id="path324" d="M399.748 377.777C372.394 377.777 331.757 358.151 331.854 358.219C348.493 379.574 371.518 404.854 397.456 404.255H399.613C425.589 404.854 454.582 372.723 463.688 358.219C463.8 358.151 427.109 377.777 399.748 377.777" fill="#251516"/>
<path id="path326" d="M353.367 367.181C360.421 379.364 377.598 387.998 397.771 387.998C417.427 387.998 434.283 379.799 441.658 368.11C429.138 372.962 413.309 377.777 399.748 377.777C385.326 377.777 367.258 372.326 353.367 367.181" fill="white"/>
<path id="path328" d="M342.292 327.241C342.292 337.305 334.138 345.452 324.089 345.452C314.032 345.452 305.878 337.305 305.878 327.241C305.878 317.185 314.032 309.038 324.089 309.038C334.138 309.038 342.292 317.185 342.292 327.241Z" fill="#933537"/>
<path id="path330" d="M489.671 327.241C489.671 337.305 481.517 345.452 471.453 345.452C461.404 345.452 453.25 337.305 453.25 327.241C453.25 317.185 461.404 309.038 471.453 309.038C481.517 309.038 489.671 317.185 489.671 327.241Z" fill="#933537"/>
<path id="path332" d="M302.202 226.489C304.837 220.753 309.203 215.991 314.063 212.022C318.93 208.009 324.471 204.796 330.372 202.513C336.295 200.341 342.457 198.671 348.747 198.394C354.985 197.848 361.282 198.454 367.302 200.079C361.267 201.869 355.471 203.044 349.825 204.699C344.157 206.189 338.743 208.173 333.352 210.143C322.614 214.351 312.505 219.608 302.202 226.489" fill="#342834"/>
<path id="path334" d="M493.34 226.489C483.044 219.608 472.936 214.351 462.198 210.143C456.806 208.173 451.385 206.189 445.717 204.699C440.078 203.044 434.283 201.869 428.247 200.079C434.268 198.454 440.558 197.848 446.803 198.394C453.093 198.671 459.255 200.341 465.171 202.513C471.071 204.796 476.612 208.009 481.479 212.022C486.339 215.991 490.705 220.753 493.34 226.489" fill="#342834"/>
<path id="path336" d="M418.355 329.809C418.355 335.822 409.198 340.689 397.883 340.689C386.576 340.689 377.418 335.822 377.418 329.809C377.418 323.804 386.576 325.594 397.883 325.594C409.198 325.594 418.355 323.804 418.355 329.809Z" fill="#792727"/>
<path id="path338" d="M344.314 237.639C338.331 237.639 333.082 243.308 330.034 251.874C326.627 250.953 317.08 247.396 311.344 235.363C311.344 235.363 309.068 247.883 324.314 256.988C324.314 256.988 317.941 261.084 309.517 258.359C309.517 258.359 313.8 266.356 327.511 263.675C327.346 265.427 327.249 267.217 327.249 269.052C327.249 286.401 334.887 300.464 344.314 300.464C353.749 300.464 361.387 286.401 361.387 269.052C361.387 251.702 353.749 237.639 344.314 237.639Z" fill="#251516"/>
<path id="path340" d="M345.086 254.083C345.086 258.381 346.98 261.87 349.324 261.87C351.66 261.87 353.555 258.381 353.555 254.083C353.555 249.777 351.66 246.287 349.324 246.287C346.98 246.287 345.086 249.777 345.086 254.083Z" fill="white"/>
<path id="path342" d="M471.228 256.988C486.481 247.883 484.205 235.363 484.205 235.363C478.469 247.396 468.915 250.953 465.515 251.874C462.468 243.308 457.211 237.639 451.228 237.639C441.801 237.639 434.163 251.702 434.163 269.052C434.163 286.401 441.801 300.464 451.228 300.464C460.663 300.464 468.301 286.401 468.301 269.052C468.301 267.217 468.203 265.427 468.031 263.675C481.749 266.356 486.032 258.359 486.032 258.359C477.608 261.084 471.228 256.988 471.228 256.988Z" fill="#251516"/>
<path id="path344" d="M452.006 254.083C452.006 258.381 453.908 261.87 456.237 261.87C458.581 261.87 460.475 258.381 460.475 254.083C460.475 249.777 458.581 246.287 456.237 246.287C453.908 246.287 452.006 249.777 452.006 254.083Z" fill="white"/>
<path id="path346" d="M266.814 326.208C260.643 323.752 251.763 320.674 246.708 308.559C242.597 298.757 245.974 282.785 252.759 282.785C252.968 282.785 253.185 282.8 253.403 282.837C254.735 284.35 255.978 286.057 256.974 287.959C257.618 289.12 258.053 290.385 258.614 291.591C256.548 291.793 254.451 292.415 252.729 293.852C250.684 295.694 249.778 297.776 249.089 299.97C247.929 304.358 248.483 308.746 249.853 312.67C249.808 308.529 250.37 304.41 251.95 301.011C253.365 297.731 255.724 296.121 258.689 296.121C259.018 296.121 259.355 296.136 259.7 296.181L260.853 296.526C264.29 305.758 265.907 315.897 266.814 326.208" fill="#953E40"/>
<path id="path348" d="M267.936 305.496C267.195 298.525 265.218 291.636 261.736 285.286C259.917 282.164 257.858 279.063 254.533 276.645C252.833 275.567 250.677 274.354 247.958 274.84C246.588 274.915 245.547 275.739 244.514 276.458C243.818 277.236 243.091 277.933 242.597 278.801C238.329 285.69 239.437 293.373 241.676 299.745C241.511 293.051 242.118 285.75 245.937 281.317C246.985 280.172 247.988 279.453 248.632 279.565C249.336 279.401 250.437 280.014 251.478 280.801C253.627 282.508 255.499 285.166 256.974 287.959C257.618 289.12 258.052 290.385 258.614 291.591C256.547 291.793 254.45 292.415 252.728 293.852C250.684 295.694 249.771 297.776 249.089 299.97C247.929 304.358 248.483 308.746 249.853 312.662C249.808 308.529 250.369 304.41 251.949 301.011C253.522 297.364 256.255 295.792 259.7 296.181L260.853 296.526C264.29 305.758 265.907 315.897 266.813 326.208C268.468 319.499 268.708 312.46 267.936 305.496Z" fill="#792727"/>
<path id="path350" d="M527.695 326.208C528.601 315.897 530.226 305.758 533.656 296.526L534.809 296.181C535.153 296.136 535.49 296.121 535.82 296.121C538.793 296.121 541.144 297.731 542.559 301.011C544.139 304.41 544.708 308.529 544.671 312.67C546.026 308.746 546.588 304.358 545.42 299.97C544.738 297.776 543.825 295.694 541.78 293.852C540.058 292.415 537.962 291.793 535.895 291.591C536.456 290.385 536.898 289.12 537.542 287.959C538.531 286.057 539.774 284.35 541.106 282.837C541.324 282.8 541.541 282.785 541.75 282.785C548.534 282.785 551.912 298.757 547.816 308.559C542.746 320.674 533.865 323.752 527.695 326.208" fill="#953E40"/>
<path id="path352" d="M526.579 305.496C527.313 298.525 529.29 291.636 532.78 285.286C534.592 282.164 536.658 279.063 539.983 276.645C541.683 275.567 543.832 274.354 546.558 274.84C547.92 274.915 548.969 275.739 550.002 276.458C550.691 277.236 551.417 277.933 551.911 278.801C556.187 285.69 555.071 293.373 552.832 299.745C552.997 293.051 552.391 285.75 548.572 281.317C547.531 280.172 546.535 279.453 545.891 279.565C545.172 279.401 544.079 280.014 543.031 280.801C540.897 282.508 539.01 285.166 537.542 287.959C536.898 289.12 536.456 290.385 535.895 291.591C537.961 291.793 540.058 292.415 541.78 293.852C543.824 295.694 544.738 297.776 545.419 299.97C546.588 304.358 546.026 308.746 544.671 312.662C544.716 308.529 544.139 304.41 542.559 301.011C540.986 297.364 538.253 295.792 534.809 296.181L533.656 296.526C530.226 305.758 528.601 315.897 527.695 326.208C526.04 319.499 525.801 312.46 526.579 305.496" fill="#792727"/>
<path id="path354" d="M396.917 432.672C383.154 432.672 367.46 423.574 351.338 396.295C356.198 403.91 362.907 410.455 370.814 415.292C378.414 419.995 387.452 422.795 396.603 422.795C396.932 422.795 397.262 422.788 397.591 422.78C407.026 422.421 416.364 419.673 424.136 414.641C428.187 412.417 431.497 409.129 435.106 406.389C438.221 403.042 441.336 399.739 444.211 396.295C444.211 396.295 424.436 432.672 396.917 432.672" fill="#984041"/>
<path id="path356" d="M351.338 396.295C357.815 402.547 365.146 407.647 372.851 411.563C380.616 415.374 389.062 417.613 397.509 417.329C399.635 417.576 401.717 416.984 403.821 416.797L406.974 416.393L410.036 415.479C412.065 414.835 414.207 414.476 416.169 413.585C418.108 412.656 420.078 411.773 422.077 410.904C424.136 410.155 425.888 408.83 427.768 407.714L433.436 404.292C437.038 401.724 440.46 398.871 444.211 396.295C441.336 399.739 438.221 403.042 435.106 406.389C431.497 409.129 428.187 412.417 424.136 414.641C416.364 419.672 407.026 422.421 397.591 422.788C388.104 422.99 378.691 420.167 370.814 415.292C362.907 410.455 356.198 403.91 351.338 396.295" fill="#792727"/>
<path id="path358" d="M270.939 343.077C267.188 341.602 263.631 339.745 260.254 337.559C241.714 349.779 217.385 374.452 221.197 418.601C226.535 480.437 297.963 470.007 324.127 425.46C302.336 404.194 282.336 375.778 270.939 343.077Z" fill="#342834"/>
<path id="path360" d="M318.818 420.099C317.073 418.272 315.336 416.4 313.628 414.483C313.628 414.483 313.628 414.476 313.636 414.476C315.343 416.393 317.073 418.272 318.818 420.099" fill="#823A3D"/>
<path id="path362" d="M323.917 425.258C322.209 423.58 320.502 421.858 318.817 420.099C317.072 418.271 315.343 416.392 313.635 414.475C313.643 414.46 313.658 414.453 313.673 414.438C317.035 418.197 320.435 421.851 323.917 425.258" fill="#7B3336"/>
<path id="path364" d="M221.172 418.324C221.172 418.264 221.164 418.204 221.157 418.144C221.164 418.212 221.172 418.264 221.172 418.324ZM221.15 418.062C221.15 417.987 221.142 417.912 221.135 417.837C221.142 417.912 221.15 417.987 221.15 418.062ZM221.135 417.822C220.934 415.269 220.822 412.783 220.807 410.364C220.822 412.783 220.934 415.269 221.135 417.822ZM220.8 410.274C220.8 410.222 220.8 410.17 220.8 410.117C220.8 410.17 220.8 410.222 220.8 410.274ZM220.8 409.96C220.8 409.93 220.8 409.893 220.8 409.863C220.8 409.9 220.8 409.93 220.8 409.96Z" fill="#C3A2B2"/>
<path id="path366" d="M263.766 461.934C242.425 461.934 223.825 449.003 221.197 418.601C221.189 418.512 221.182 418.422 221.174 418.324C221.174 418.264 221.167 418.212 221.159 418.145C221.159 418.115 221.159 418.092 221.152 418.062C221.152 417.987 221.144 417.913 221.137 417.838C221.137 417.83 221.137 417.823 221.137 417.823C220.935 415.269 220.822 412.783 220.807 410.365C220.8 410.335 220.8 410.305 220.8 410.275C220.8 410.222 220.8 410.17 220.8 410.118C220.8 410.065 220.8 410.013 220.8 409.96C220.8 409.93 220.8 409.9 220.8 409.863C220.77 399.822 222.252 390.888 224.761 382.959C224.806 385.28 224.903 387.639 225.113 390.08C227.734 420.473 246.319 433.398 267.652 433.398C283.227 433.398 300.27 426.501 313.628 414.483C315.336 416.4 317.073 418.272 318.818 420.099C320.502 421.859 322.21 423.581 323.917 425.258C323.992 425.326 324.059 425.393 324.127 425.46C324.127 425.468 324.127 425.468 324.127 425.475C324.112 425.498 324.097 425.513 324.089 425.535C310.776 448.142 285.81 461.942 263.766 461.934" fill="#2C222B"/>
<path id="path368" d="M535.064 337.416C531.619 339.67 527.98 341.572 524.131 343.077C512.794 375.627 492.929 403.94 471.258 425.168C497.287 469.961 568.999 480.572 574.353 418.601C578.172 374.28 553.641 349.592 535.064 337.416Z" fill="#342834"/>
<path id="path370" d="M473.677 422.766C477.975 418.415 482.191 413.772 486.264 408.883C486.272 408.89 486.279 408.898 486.287 408.905C482.198 413.787 477.983 418.415 473.677 422.766" fill="#823A3D"/>
<path id="path372" d="M471.505 424.93C476.56 419.965 481.502 414.581 486.264 408.883C482.191 413.772 477.975 418.415 473.677 422.766C472.958 423.492 472.232 424.218 471.505 424.93Z" fill="#7B3336"/>
<path id="path374" d="M531.791 461.934C509.634 461.934 484.52 447.984 471.258 425.176C471.258 425.176 471.258 425.176 471.258 425.168C471.341 425.094 471.423 425.011 471.505 424.929C472.232 424.217 472.958 423.491 473.677 422.765C477.983 418.414 482.198 413.787 486.287 408.905C500.222 424.345 519.968 433.383 537.804 433.383C553.162 433.383 567.105 426.673 574.69 411.578C574.645 413.876 574.555 416.198 574.353 418.601C571.725 449.01 553.132 461.942 531.791 461.934" fill="#2C222B"/>
<path id="path376" d="M261.497 255.229C261.549 253.753 261.564 252.263 261.624 250.796C264.904 244.633 282.695 213.985 322.03 192.569C353.944 175.204 400.437 160.341 420.183 128.621C434.313 160.341 467.582 175.204 490.413 192.569C517.781 213.393 530.593 243.016 533.439 250.301C533.506 251.934 533.521 253.589 533.573 255.229C553.035 237.819 562.447 248.946 564.911 266.071C579.19 239.466 587.307 208.983 587.307 176.575C587.307 72.8583 489.507 -9.46922e-06 386.981 -9.46922e-06C344.771 -9.46922e-06 310.424 18.6976 297.177 66.1416C239.437 66.1416 215.992 115.547 215.992 176.575C215.992 204.7 222.14 231.364 233.102 255.318C237.618 245.314 246.611 241.907 261.497 255.229" fill="#342834"/>
<path id="path378" d="M533.73 255.094C533.737 255.087 533.744 255.079 533.751 255.072C533.744 255.072 533.744 255.079 533.737 255.079C533.737 255.086 533.737 255.087 533.737 255.087C533.73 255.087 533.73 255.087 533.73 255.094" fill="#C3A2B2"/>
<path id="path380" d="M533.888 254.952C533.895 254.945 533.903 254.945 533.903 254.937C533.903 254.937 533.895 254.945 533.888 254.952ZM534.044 254.81C534.052 254.802 534.059 254.802 534.059 254.795C534.059 254.802 534.052 254.802 534.044 254.81ZM534.215 254.66C534.223 254.66 534.223 254.653 534.23 254.653C534.223 254.653 534.223 254.66 534.215 254.66ZM534.349 254.548C534.379 254.518 534.416 254.488 534.453 254.458C534.438 254.465 534.424 254.48 534.409 254.488C534.394 254.503 534.379 254.518 534.364 254.533C534.357 254.54 534.349 254.54 534.349 254.548Z" fill="#C3A2B2"/>
<path id="path382" d="M534.367 254.532C534.382 254.517 534.397 254.502 534.411 254.488C534.397 254.502 534.382 254.517 534.367 254.532Z" fill="#823A3D"/>
<path id="path384" d="M534.472 254.442C536.666 252.54 538.733 251.013 540.68 249.83C538.74 251.013 536.681 252.533 534.494 254.427C534.487 254.427 534.479 254.435 534.472 254.442V254.442ZM540.709 249.807C540.747 249.785 540.777 249.762 540.814 249.74C540.784 249.762 540.747 249.785 540.709 249.807Z" fill="#C3A2B2"/>
<path id="path386" d="M534.494 254.428C536.681 252.533 538.74 251.013 540.679 249.83C540.687 249.822 540.702 249.815 540.709 249.808C540.747 249.785 540.784 249.763 540.814 249.74C543.315 248.228 545.599 247.277 547.681 246.805C547.673 246.827 547.658 246.85 547.651 246.872C543.914 247.711 539.564 250.047 534.494 254.428ZM264.08 246.543C264.08 246.535 264.073 246.535 264.073 246.535C266.626 242.357 270.849 236.082 277.012 228.901C270.842 236.089 266.619 242.372 264.08 246.543V246.543ZM277.034 228.863C277.049 228.849 277.064 228.834 277.079 228.811C277.064 228.834 277.049 228.849 277.034 228.863ZM313.823 197.354C313.83 197.347 313.838 197.339 313.845 197.339C313.838 197.339 313.83 197.347 313.823 197.354ZM314.467 196.95C314.482 196.942 314.497 196.935 314.512 196.927C314.497 196.935 314.482 196.942 314.467 196.95ZM314.677 196.83C314.692 196.815 314.714 196.8 314.736 196.793C314.714 196.8 314.692 196.815 314.677 196.83ZM314.871 196.703C314.894 196.688 314.924 196.673 314.946 196.658C314.924 196.673 314.894 196.688 314.871 196.703ZM315.058 196.59C315.096 196.568 315.133 196.545 315.171 196.523C315.133 196.545 315.096 196.568 315.058 196.59ZM315.223 196.493C315.268 196.463 315.321 196.433 315.373 196.403C315.321 196.433 315.276 196.463 315.223 196.493ZM315.373 196.396C317.215 195.28 319.102 194.187 321.049 193.108C319.102 194.187 317.208 195.287 315.373 196.396ZM321.056 193.108C321.116 193.071 321.176 193.041 321.229 193.004C321.176 193.041 321.116 193.071 321.056 193.108ZM321.259 192.996C321.311 192.966 321.363 192.936 321.416 192.906C321.363 192.936 321.311 192.966 321.259 192.996ZM321.483 192.869C321.528 192.846 321.573 192.816 321.618 192.794C321.573 192.816 321.528 192.846 321.483 192.869ZM321.7 192.749C321.745 192.726 321.783 192.704 321.82 192.682C321.783 192.704 321.745 192.726 321.7 192.749Z" fill="#823A3D"/>
<path id="path388" d="M533.573 255.228C533.521 253.589 533.506 251.934 533.439 250.301C530.593 243.015 517.781 213.393 490.413 192.569C467.582 175.204 434.312 160.34 420.183 128.621C400.437 160.34 353.944 175.204 322.03 192.569C321.962 192.606 321.895 192.644 321.82 192.681C321.783 192.704 321.745 192.726 321.7 192.748C321.678 192.763 321.648 192.778 321.618 192.793C321.573 192.816 321.528 192.846 321.483 192.868C321.461 192.883 321.438 192.891 321.416 192.906C321.363 192.936 321.311 192.966 321.259 192.996C321.251 192.996 321.244 193.003 321.229 193.003C321.176 193.04 321.116 193.07 321.056 193.108C321.049 193.108 321.049 193.108 321.049 193.108C319.102 194.186 317.215 195.279 315.373 196.395C315.373 196.403 315.373 196.403 315.373 196.403C315.321 196.433 315.268 196.462 315.223 196.492C315.208 196.5 315.186 196.507 315.171 196.522C315.133 196.545 315.096 196.567 315.058 196.59C315.021 196.612 314.984 196.635 314.946 196.657C314.924 196.672 314.894 196.687 314.871 196.702C314.826 196.732 314.781 196.762 314.737 196.792C314.714 196.8 314.692 196.815 314.677 196.829C314.617 196.859 314.564 196.897 314.512 196.927C314.497 196.934 314.482 196.942 314.467 196.949C314.257 197.084 314.055 197.211 313.846 197.339C313.838 197.339 313.831 197.346 313.823 197.354C297.537 207.492 285.503 218.994 277.079 228.811C277.064 228.833 277.049 228.848 277.034 228.863C277.027 228.878 277.02 228.885 277.012 228.9C270.849 236.081 266.626 242.356 264.073 246.535C255.873 229.395 249.321 203.164 250.729 177.548C252.773 139.988 282.134 120.864 282.134 120.864C259.602 129.744 248.67 146.136 248.67 146.136C252.691 108.269 301.999 94.506 317.672 91.069C320.966 77.2012 327.107 63.7153 337.455 51.8918L331.989 94.9178C331.989 94.9178 344.966 32.7749 418.033 30.7232L383.888 55.9952C383.888 55.9952 394.222 53.5766 410.5 53.5766C440.812 53.5766 491.715 61.9556 534.801 109.939C578.329 158.394 563.188 214.217 547.681 246.804C545.599 247.276 543.315 248.227 540.814 249.74C540.777 249.762 540.747 249.785 540.709 249.807C540.702 249.815 540.687 249.822 540.679 249.829C538.733 251.012 536.666 252.54 534.472 254.442C534.464 254.45 534.457 254.45 534.457 254.457C534.419 254.487 534.382 254.517 534.352 254.547C534.307 254.584 534.27 254.614 534.232 254.652C534.225 254.652 534.225 254.659 534.217 254.659C534.165 254.704 534.112 254.749 534.06 254.794C534.06 254.802 534.053 254.802 534.045 254.809C534 254.854 533.955 254.891 533.903 254.936C533.903 254.944 533.895 254.944 533.888 254.951C533.843 254.989 533.798 255.034 533.753 255.071C533.746 255.078 533.738 255.086 533.731 255.093C533.678 255.138 533.626 255.183 533.573 255.228" fill="#2C222B"/>
</g>
</svg>
